HIERARCHY
ROOT Hips
{
 OFFSET 0.000000 0.000000 0.000000
 CHANNELS 6 Xposition Yposition Zposition Yrotation Xrotation Zrotation
 JOINT Chest
 {
  OFFSET 0.000000 9.876139 0.000104
  CHANNELS 3 Yrotation Xrotation Zrotation
  JOINT Chest2
  {
   OFFSET 0.000000 10.876137 -0.000189
   CHANNELS 3 Yrotation Xrotation Zrotation
   JOINT Chest3
   {
    OFFSET 0.000000 9.827065 0.000000
    CHANNELS 3 Yrotation Xrotation Zrotation
    JOINT Chest4
    {
     OFFSET 0.000000 9.827065 0.000000
     CHANNELS 3 Yrotation Xrotation Zrotation
     JOINT Neck
     {
      OFFSET 0.000000 13.837564 0.000000
      CHANNELS 3 Yrotation Xrotation Zrotation
      JOINT Head
      {
       OFFSET 0.000000 9.147059 -0.000448
       CHANNELS 3 Yrotation Xrotation Zrotation
       End Site
       {
        OFFSET 0.000000 17.513050 -0.000234
       }
      }
     }
     JOINT RightCollar
     {
      OFFSET -3.007721 7.720841 0.000000
      CHANNELS 3 Yrotation Xrotation Zrotation
      JOINT RightShoulder
      {
       OFFSET -14.032560 0.000000 0.000000
       CHANNELS 3 Yrotation Xrotation Zrotation
       JOINT RightElbow
       {
        OFFSET -30.066962 0.000000 0.000000
        CHANNELS 3 Yrotation Xrotation Zrotation
        JOINT RightWrist
        {
         OFFSET -24.575761 0.000000 0.000000
         CHANNELS 3 Yrotation Xrotation Zrotation
         JOINT Prop1
         {
          OFFSET -3.508170 -1.002334 -2.004669
          CHANNELS 3 Yrotation Xrotation Zrotation
          End Site
          {
           OFFSET -75.170729 -33.091210 23.052389
          }
         }
         End Site
         {
          OFFSET -18.342718 0.000000 0.000000
         }
        }
       }
      }
     }
     JOINT LeftCollar
     {
      OFFSET 3.007721 7.720841 0.000000
      CHANNELS 3 Yrotation Xrotation Zrotation
      JOINT LeftShoulder
      {
       OFFSET 14.032560 0.000000 0.000000
       CHANNELS 3 Yrotation Xrotation Zrotation
       JOINT LeftElbow
       {
        OFFSET 30.066962 0.000000 0.000000
        CHANNELS 3 Yrotation Xrotation Zrotation
        JOINT LeftWrist
        {
         OFFSET 24.575761 0.000000 0.000000
         CHANNELS 3 Yrotation Xrotation Zrotation
         End Site
         {
          OFFSET 18.342718 0.000000 0.000000
         }
        }
       }
      }
     }
    }
   }
  }
 }
 JOINT RightHip
 {
  OFFSET -8.019680 -0.000509 -0.000052
  CHANNELS 3 Yrotation Xrotation Zrotation
  JOINT RightKnee
  {
   OFFSET 0.000000 -41.754945 0.000049
   CHANNELS 3 Yrotation Xrotation Zrotation
   JOINT RightAnkle
   {
    OFFSET 0.000000 -40.737371 0.000083
    CHANNELS 3 Yrotation Xrotation Zrotation
    JOINT RightToe
    {
     OFFSET 0.000000 -6.498123 14.692914
     CHANNELS 3 Yrotation Xrotation Zrotation
     End Site
     {
      OFFSET 0.000000 -1.503208 6.410318
     }
    }
   }
  }
 }
 JOINT LeftHip
 {
  OFFSET 8.019680 -0.000509 -0.000052
  CHANNELS 3 Yrotation Xrotation Zrotation
  JOINT LeftKnee
  {
   OFFSET 0.000000 -41.754945 0.000049
   CHANNELS 3 Yrotation Xrotation Zrotation
   JOINT LeftAnkle
   {
    OFFSET 0.000000 -40.737371 0.000083
    CHANNELS 3 Yrotation Xrotation Zrotation
    JOINT LeftToe
    {
     OFFSET 0.000000 -6.498123 14.692914
     CHANNELS 3 Yrotation Xrotation Zrotation
     End Site
     {
      OFFSET 0.000000 -1.503208 6.410318
     }
    }
   }
  }
 }
}
MOTION
Frames: 16
Frame Time: 0.016667
0.000000 88.808225 0.000000 0.000000 -5.826342 0.000000 0.000000 11.116423 0.000000 0.000000 -5.290081 0.000000 0.000000 0.000000 0.000000 0.000000 0.000000 0.000000 0.000000 12.665069 0.000000 0.000000 0.575450 0.000000 0.000000 0.000000 0.000000 0.000000 0.000000 0.000000 2.337306 0.000000 0.000000 -2.337306 0.000000 0.000000 0.000000 0.000000 0.000000 0.000000 0.000000 0.000000 0.000000 0.000000 0.000000 -2.337306 0.000000 0.000000 2.337306 0.000000 0.000000 0.000000 8.578828 0.000000 0.000000 1.905768 0.000000 0.000000 -4.658254 0.000000 0.000000 0.000000 0.000000 0.000000 8.578828 0.000000 0.000000 1.905768 0.000000 0.000000 -4.658254 0.000000 0.000000 0.000000 0.000000
-22.648274 87.098882 15.927316 -158.979963 -18.003467 1.958152 -3.399192 13.226217 -3.115685 -1.409519 5.891326 -1.280585 -1.409519 5.891326 -1.280585 -1.043828 4.421495 -0.945967 -10.914165 15.641112 5.178924 -22.139475 -5.341373 13.477596 7.007975 -3.893243 7.274205 -19.899545 -36.054146 75.094119 37.540272 -0.853662 -7.777004 -3.560059 8.040645 -14.815876 -22.235587 -0.728954 -84.308031 8.675855 -0.272952 -10.403237 9.248067 -4.717018 -73.169877 -10.884855 13.251737 2.046748 -1.310505 -3.169532 0.190644 -13.153014 -9.799306 -20.242692 -4.503813 28.646459 1.466833 5.516835 9.129019 -0.335361 -0.813408 -10.224534 9.012129 38.820859 11.282760 24.678566 -32.244234 18.280359 -8.444957 6.201861 -19.130652 -0.887016 -0.003846 0.033213 0.004224
-22.656905 87.099976 15.917410 -158.966110 -18.011118 1.962907 -3.393425 13.222725 -3.131168 -1.406815 5.890691 -1.289036 -1.406815 5.890691 -1.289036 -1.041722 4.421032 -0.952327 -10.903306 15.620637 5.167729 -22.119615 -5.383716 13.457946 6.978213 -3.961177 7.300128 -19.849303 -35.988014 75.050307 37.589041 -0.939713 -7.685920 -3.513987 8.168915 -14.784997 -22.232008 -0.684704 -84.341826 8.652243 -0.275783 -10.383475 9.195506 -4.726696 -73.168101 -11.309291 13.259018 1.933402 -1.320711 -3.179009 0.272181 -13.211101 -9.802808 -20.261745 -4.495354 28.649295 1.465317 5.554826 9.125683 -0.333905 -0.812181 -10.229128 9.008243 38.773835 11.323899 24.658620 -32.217309 18.264467 -8.424929 6.206822 -19.120600 -0.889024 -0.001620 0.033915 0.002842
-22.668640 87.100018 15.904463 -158.968745 -18.024596 1.970111 -3.385815 13.225556 -3.148211 -1.401174 5.893123 -1.296474 -1.401174 5.893123 -1.296474 -1.037416 4.422862 -0.957949 -10.891036 15.602093 5.158540 -22.097447 -5.422358 13.441095 6.974054 -3.931062 7.301606 -19.776970 -35.999199 75.036545 37.623860 -0.958069 -7.679669 -3.503982 8.205431 -14.662374 -22.175769 -0.685917 -84.389391 8.620995 -0.251113 -10.376217 9.139136 -4.772983 -73.179855 -11.746737 13.267898 1.828365 -1.330395 -3.169349 0.327101 -13.258168 -9.796059 -20.277636 -4.485069 28.647234 1.465289 5.559688 9.121826 -0.332807 -0.812202 -10.227635 9.002844 38.730549 11.371613 24.643540 -32.176643 18.243111 -8.411086 6.256645 -19.100507 -0.899180 -0.002977 0.034510 -0.000619
-22.673314 87.100057 15.892069 -158.987770 -18.062447 1.981721 -3.367199 13.242915 -3.168053 -1.392733 5.901221 -1.304045 -1.392733 5.901221 -1.304045 -1.030998 4.428934 -0.963683 -10.883901 15.592006 5.149005 -22.083011 -5.444536 13.423445 6.990288 -3.882218 7.307295 -19.747194 -36.063420 75.071000 37.632340 -0.955663 -7.681131 -3.489294 8.245492 -14.509779 -22.104431 -0.682301 -84.400410 8.601843 -0.221559 -10.371338 9.046361 -4.839868 -73.195036 -12.168175 13.272996 1.717803 -1.346664 -3.154287 0.383967 -13.240811 -9.757389 -20.306517 -4.517714 28.654121 1.459430 5.642966 9.110961 -0.327630 -0.810192 -10.232063 8.998456 38.769617 11.433435 24.659207 -32.147477 18.198988 -8.368644 6.252231 -19.075795 -0.907288 -0.007018 0.038685 -0.003853
-22.683439 87.102432 15.884668 -158.992307 -18.100927 1.996151 -3.360080 13.259034 -3.189530 -1.389781 5.908250 -1.312819 -1.389781 5.908250 -1.312819 -1.028684 4.434220 -0.970268 -10.881591 15.593153 5.133963 -22.073461 -5.446444 13.394820 7.034242 -3.822833 7.320222 -19.802283 -36.173777 75.111299 37.623123 -1.023209 -7.586251 -3.445620 8.362028 -14.438371 -22.057150 -0.634846 -84.375507 8.608690 -0.213928 -10.365677 8.938818 -4.873845 -73.197981 -12.603882 13.277524 1.578345 -1.360619 -3.138955 0.455427 -13.228356 -9.717761 -20.334637 -4.545390 28.661845 1.455412 5.632770 9.110632 -0.322857 -0.810677 -10.236291 8.992630 38.822878 11.491282 24.668097 -32.121809 18.152564 -8.301163 6.187918 -19.048449 -0.914524 -0.007726 0.042880 -0.003210
-22.687099 87.106389 15.876861 -158.970851 -18.124656 2.014357 -3.368534 13.267624 -3.220350 -1.394010 5.910735 -1.325536 -1.394010 5.910735 -1.325536 -1.031724 4.436123 -0.979750 -10.882612 15.611365 5.119384 -22.066948 -5.416357 13.364448 7.051168 -3.828004 7.334996 -19.836384 -36.197986 75.099018 37.608267 -1.106079 -7.423927 -3.393408 8.466925 -14.440233 -22.026038 -0.596165 -84.420708 8.624420 -0.197232 -10.349540 8.816718 -4.899471 -73.195520 -13.049281 13.279315 1.431122 -1.379737 -3.125559 0.530195 -13.227029 -9.686334 -20.377978 -4.540538 28.658884 1.469518 5.648849 9.106208 -0.313568 -0.808955 -10.242207 8.990199 38.823784 11.555721 24.635716 -32.133457 18.114329 -8.245524 6.194596 -19.029556 -0.917208 -0.011201 0.045959 -0.004730
-22.693692 87.111421 15.868670 -158.926781 -18.156102 2.025957 -3.393175 13.275274 -3.247833 -1.403904 5.914492 -1.337402 -1.403904 5.914492 -1.337402 -1.039013 4.438990 -0.988536 -10.886684 15.639728 5.107009 -22.064877 -5.366559 13.336937 7.062823 -3.844125 7.339044 -19.777983 -36.168130 75.072048 37.611643 -1.226360 -7.328029 -3.373669 8.558224 -14.433350 -21.979732 -0.581141 -84.545671 8.649300 -0.201622 -10.336446 8.726121 -4.893043 -73.203260 -13.504156 13.326047 1.291052 -1.392901 -3.114504 0.592497 -13.266738 -9.648304 -20.407421 -4.505267 28.651047 1.478533 5.624591 9.097189 -0.303047 -0.808950 -10.242889 8.987369 38.728636 11.647267 24.584039 -32.140029 18.085276 -8.216965 6.275970 -19.011823 -0.916599 -0.010761 0.045398 -0.006390
-22.698508 87.119652 15.852178 -158.895279 -18.196314 2.023847 -3.409013 13.285788 -3.262389 -1.408834 5.920885 -1.345983 -1.408834 5.920885 -1.345983 -1.042608 4.443816 -0.994901 -10.896450 15.670354 5.097362 -22.073810 -5.310780 13.315806 7.089989 -3.829421 7.348906 -19.669801 -36.169472 75.069248 37.610181 -1.317832 -7.319381 -3.389468 8.616444 -14.347101 -21.915228 -0.600778 -84.644324 8.670562 -0.187946 -10.323785 8.679249 -4.924943 -73.246074 -13.935811 13.452274 1.170134 -1.402538 -3.101609 0.641880 -13.299022 -9.582035 -20.418728 -4.476954 28.622871 1.484928 5.538728 9.103047 -0.290013 -0.809560 -10.243405 8.983918 38.646624 11.730136 24.564605 -32.105735 18.054170 -8.173751 6.341258 -18.978524 -0.942303 -0.003177 0.039382 -0.004247
-22.699926 87.127028 15.833882 -158.886851 -18.197579 2.022838 -3.409998 13.286235 -3.271631 -1.407939 5.922639 -1.350706 -1.407939 5.922639 -1.350706 -1.041886 4.445140 -0.998444 -10.908372 15.694939 5.090732 -22.088892 -5.264878 13.302214 7.101258 -3.829632 7.350265 -19.537562 -36.158178 75.055824 37.630930 -1.456752 -7.305183 -3.381979 8.657293 -14.219734 -21.876646 -0.565433 -84.615723 8.688976 -0.171836 -10.317503 8.615954 -4.971126 -73.290847 -14.339000 13.582544 1.058909 -1.414712 -3.092363 0.679424 -13.313289 -9.557974 -20.418351 -4.475313 28.600701 1.477477 5.565084 9.098458 -0.277031 -0.810868 -10.245871 8.980462 38.631696 11.751727 24.554111 -32.077262 18.017402 -8.134315 6.348859 -18.939443 -0.963387 -0.000239 0.034623 -0.002892
-22.703436 87.130943 15.818332 -158.878959 -18.150318 2.028659 -3.420515 13.265440 -3.274235 -1.413384 5.911924 -1.350367 -1.413384 5.911924 -1.350367 -1.045997 4.437115 -0.998165 -10.913408 15.715546 5.075617 -22.089190 -5.229680 13.271674 7.140100 -3.811239 7.325590 -19.547286 -36.165687 75.090833 37.696026 -1.619749 -7.190088 -3.362059 8.792424 -14.150194 -21.892659 -0.511844 -84.518721 8.727621 -0.149824 -10.342516 8.536549 -4.998642 -73.326863 -14.727733 13.692934 0.960745 -1.421641 -3.081084 0.711257 -13.318370 -9.588664 -20.414945 -4.465693 28.593311 1.482814 5.553281 9.087732 -0.271833 -0.812437 -10.244354 8.977885 38.617516 11.735263 24.509332 -32.066146 17.985312 -8.110919 6.352174 -18.916055 -0.967697 -0.004377 0.037744 -0.003757
-22.707480 87.134979 15.803591 -158.849706 -18.120105 2.035510 -3.437312 13.257868 -3.279105 -1.422165 5.906728 -1.350864 -1.422165 5.906728 -1.350864 -1.052586 4.433239 -0.998466 -10.915908 15.728464 5.064593 -22.087652 -5.208114 13.249478 7.184722 -3.784304 7.303177 -19.658046 -36.201109 75.166026 37.757766 -1.646033 -7.044270 -3.379357 8.841477 -14.127766 -21.907740 -0.479183 -84.502743 8.765395 -0.168476 -10.365269 8.434846 -4.980107 -73.356726 -15.097920 13.765660 0.877900 -1.422680 -3.066138 0.736976 -13.336997 -9.598744 -20.428558 -4.471460 28.579675 1.484546 5.557341 9.077866 -0.264183 -0.812559 -10.242575 8.976892 38.594864 11.744373 24.460668 -32.062168 17.952109 -8.073834 6.370626 -18.897749 -0.976374 -0.008996 0.042557 -0.004080
-22.716760 87.142110 15.785058 -158.811099 -18.106723 2.037088 -3.450123 13.252305 -3.279556 -1.427446 5.905117 -1.351041 -1.427446 5.905117 -1.351041 -1.056546 4.432043 -0.998552 -10.919078 15.739891 5.058830 -22.089399 -5.187905 13.237476 7.200615 -3.798283 7.294668 -19.617247 -36.159646 75.140564 37.801593 -1.756554 -6.982019 -3.403350 8.868747 -14.138823 -21.910151 -0.455292 -84.580679 8.782360 -0.148212 -10.379946 8.339103 -4.997840 -73.403624 -15.419074 13.818752 0.804623 -1.429615 -3.050950 0.770302 -13.370372 -9.590027 -20.438684 -4.466736 28.566190 1.483645 5.522097 9.072082 -0.252011 -0.812921 -10.244692 8.974098 38.540085 11.770984 24.424165 -32.039233 17.928357 -8.049534 6.399319 -18.879149 -0.987604 -0.009973 0.038990 -0.001806
-22.724339 87.146911 15.766108 -158.778441 -18.041039 2.039160 -3.453901 13.218268 -3.276908 -1.429242 5.890571 -1.350515 -1.429242 5.890571 -1.350515 -1.057934 4.421136 -0.998179 -10.922313 15.749350 5.057363 -22.093081 -5.170279 13.233802 7.215388 -3.794983 7.287381 -19.567263 -36.116910 75.153016 37.848313 -1.826981 -6.993515 -3.441649 8.879983 -14.129165 -21.911862 -0.457860 -84.640309 8.804623 -0.147959 -10.377337 8.275196 -4.990083 -73.470389 -15.703880 13.881165 0.737206 -1.436110 -3.041279 0.796360 -13.391608 -9.631778 -20.438545 -4.477541 28.553747 1.473815 5.531081 9.062376 -0.234589 -0.812812 -10.246910 8.971675 38.497267 11.749834 24.363302 -32.025044 17.912675 -8.033459 6.367164 -18.880019 -0.977729 -0.010996 0.039936 0.000473
-22.728127 87.145259 15.751608 -158.760551 -17.948851 2.038551 -3.446285 13.169458 -3.271746 -1.427205 5.867744 -1.348728 -1.427205 5.867744 -1.348728 -1.056483 4.404007 -0.996921 -10.923924 15.759946 5.059172 -22.094650 -5.150158 13.235370 7.216676 -3.766377 7.275067 -19.608574 -36.102138 75.255687 37.891982 -1.866427 -6.956950 -3.474317 8.869337 -14.103792 -21.900506 -0.422124 -84.636148 8.822485 -0.140605 -10.369051 8.252815 -4.989106 -73.540544 -15.938890 13.963474 0.668637 -1.443637 -3.033318 0.815679 -13.381489 -9.709928 -20.424707 -4.475895 28.567837 1.476835 5.537821 9.038073 -0.225952 -0.812032 -10.246705 8.971212 38.486282 11.695789 24.306597 -32.006612 17.897009 -8.020176 6.318893 -18.890338 -0.972904 -0.010521 0.048382 0.004476
-22.728471 87.143627 15.735772 -158.742283 -17.897507 2.034964 -3.435923 13.137359 -3.262452 -1.423742 5.852180 -1.346322 -1.423742 5.852180 -1.346322 -1.053950 4.392321 -0.995192 -10.925243 15.765924 5.062202 -22.096965 -5.138251 13.240074 7.218292 -3.776793 7.280897 -19.678396 -36.070641 75.311185 37.937535 -1.980811 -6.868325 -3.504067 8.947311 -14.124035 -21.907479 -0.392948 -84.578080 8.825354 -0.128443 -10.370433 8.250220 -5.005141 -73.593453 -16.111553 14.069249 0.604826 -1.446466 -3.033625 0.814849 -13.377545 -9.750057 -20.415819 -4.450738 28.584547 1.490640 5.517647 9.012699 -0.221920 -0.811885 -10.246238 8.972235 38.514894 11.642564 24.302200 -32.024358 17.889635 -8.024384 6.287231 -18.895228 -0.980889 -0.006915 0.050059 0.009230
